<?xml version="1.0" standalone="no"?><!DOCTYPE svg PUBLIC "-//W3C//DTD SVG 1.1//EN" "http://www.w3.org/Graphics/SVG/1.1/DTD/svg11.dtd"><svg t="1671566470581" class="icon" viewBox="0 0 1024 1024" version="1.1" xmlns="http://www.w3.org/2000/svg" p-id="1693" xmlns:xlink="http://www.w3.org/1999/xlink" width="200" height="200"><path d="M512 512m-422.1 0a422.1 422.1 0 1 0 844.2 0 422.1 422.1 0 1 0-844.2 0Z" fill="#2C3D71" p-id="1694"></path><path d="M512 960C265 960 64 759 64 512S265 64 512 64s448 201 448 448-201 448-448 448z m0-870.1C279.25 89.9 89.9 279.25 89.9 512S279.25 934.1 512 934.1 934.1 744.75 934.1 512 744.75 89.9 512 89.9z" fill="#1B1E3B" p-id="1695"></path><path d="M294 381.85a540.39 540.39 0 0 0-38.22 74.33A415.69 415.69 0 0 0 231.71 536c-5 27.26-6.8 55.38-2.43 82.44 2.33 13.44 6.14 26.69 12.6 38.38a83.34 83.34 0 0 0 11.47 16.11 65.87 65.87 0 0 0 33 19.47 82.13 82.13 0 0 0 19.31 2.18c13.08 0 26.19-3 38.77-7.37 25.25-9 48.29-24 69.54-40.83s40.53-36.5 58.31-57.23a530.52 530.52 0 0 0 48.26-66.31c7.2-11.65 14.1-23.48 20.52-35.56s12.25-24.47 17.66-37c10.69-25.13 19.82-51 25.58-77.59s9-53.79 5.92-80.4c-1.65-13.21-4.74-26.29-10.5-38a82 82 0 0 0-10.47-16.35 65.81 65.81 0 0 0-32-21 83.28 83.28 0 0 0-19.51-3.18c-13.34-0.64-26.9 1.79-40 5.63-26.21 8-50.65 22-72.9 38.56a416.23 416.23 0 0 0-61 56.85A540.42 540.42 0 0 0 294 381.85z m0 0a540.8 540.8 0 0 1 49.22-67.63c18.19-21.16 37.84-41.21 59.8-58.64s45.76-33 72.65-42.48c13.42-4.61 27.6-7.89 42.2-7.88a92.21 92.21 0 0 1 21.83 2.55 76.22 76.22 0 0 1 38 22.59 93.88 93.88 0 0 1 12.92 18.22c7.16 13.05 11.2 27.37 13.67 41.68 4.59 28.78 2.67 57.88-2.53 86-10.78 56.29-33.94 109.23-63.7 157.55a550.87 550.87 0 0 1-50.78 68.42 428.37 428.37 0 0 1-62.48 58.26c-22.94 17-48.17 31.63-76 40.21-13.93 4.11-28.55 6.8-43.41 6.14a93.84 93.84 0 0 1-22-3.54 76.17 76.17 0 0 1-37-24.14 92.17 92.17 0 0 1-11.92-18.45c-6.46-13.09-9.77-27.25-11.56-41.33-3.34-28.32 0.18-56.6 6-83.93s15.25-53.88 26.2-79.55A540.84 540.84 0 0 1 294 381.85z" fill="#FFFFFF" p-id="1696"></path><path d="M337.52 387.13a19.47 19.47 0 0 0-2.77 7.62c-0.36 2.54 0.26 5.76 2.06 6.39 1.63 0.57 3.81-0.84 5.5-2.45a31.87 31.87 0 0 0 7.69-12.37c0.69-2.22 1-4.8-0.23-6s-4.5-0.48-6.63 1a19.45 19.45 0 0 0-5.62 5.81z m0 0a29.67 29.67 0 0 1 5.18-6.42 13.48 13.48 0 0 1 3.55-2.44 5.67 5.67 0 0 1 4.9-0.15 6.34 6.34 0 0 1 3 4.32 13.52 13.52 0 0 1 0.18 4.78 22.13 22.13 0 0 1-9.35 15 13.73 13.73 0 0 1-4.37 1.94 6.34 6.34 0 0 1-5.21-0.83 5.67 5.67 0 0 1-2-4.45 13.57 13.57 0 0 1 0.62-4.26 29.59 29.59 0 0 1 3.5-7.49zM344.22 406.78l16.85 132.73c2.89 22.1 6.74 44.07 8.87 66.21 2.36 22.14 3.84 44.3 6.44 66.45l-1 0.3a199.91 199.91 0 0 1-9.51-32.4c-2.5-11-4.43-22-6.21-33-3.66-22.08-4.84-44.42-6.84-66.65l-5.38-66.73-4.27-66.81zM340.2 414.92q-2 34.21-3.41 68.45c-1.09 22.81-2 45.62-2.63 68.42s-0.16 45.62-1.16 68.33c-0.64 22.75-1.93 45.36-0.87 68.18l-1 0.22a170.23 170.23 0 0 1-6.46-34c-1.28-11.48-1.66-23-2-34.45-0.55-23 1.7-45.83 3.22-68.66s3.62-45.62 5.74-68.38q3.46-34.13 7.55-68.18zM336.17 415q-5.61 34.68-10.78 69.42-5.44 34.69-10.44 69.43c-3.36 23.15-5.68 46.44-9.57 69.45l-5.69 34.52c-0.88 5.75-1.84 11.51-2.58 17.26a80.75 80.75 0 0 0-1.17 17.24l-1 0.28c-2-5.79-2.18-11.84-2.55-17.74-0.22-5.94-0.16-11.85 0.05-17.75 0.4-11.8 1.46-23.52 2.67-35.21 2.42-23.39 7.41-46.36 11.66-69.41s8.87-46 13.52-69q7.25-34.39 14.86-68.7zM352.23 406.62l25 53.49 24.56 53.7c8.12 17.93 17.07 35.5 24.08 53.9s13.76 36.91 18.84 56.13l-1 0.41c-10.33-17-19.07-34.65-27.42-52.48s-14.88-36.43-22.18-54.71l-21.7-54.91L351.27 407zM356.06 402.37l44.4 27.45 44.11 27.88c14.67 9.35 29.83 18 43.82 28.31s27.82 20.94 40.64 33l-0.58 0.86c-16-7.36-31-16.15-45.85-25.3s-28.5-19.93-42.66-30l-42.37-30.45-42.08-30.88zM364 394.26l49.85 10.9 49.71 11.45c16.55 3.89 33.33 6.93 49.57 12s32.42 10.4 48 17.92l-0.33 1a485.83 485.83 0 0 1-50.35-8.9c-16.61-3.63-32.69-9.27-49-14l-48.91-14.45-48.8-14.91zM367.88 386.19l54.91 1.54 54.87 1.81c18.29 0.63 36.61 0.28 54.82 1.93 9.11 0.79 18.21 1.61 27.3 2.68 9.07 0.87 18.21 2.5 27.2 3.11l0.22 1c-9.26 2.24-18.45 2.67-27.66 3.16s-18.38 0.46-27.55 0.38c-18.34-0.14-36.56-2.48-54.81-4l-54.71-4.91-54.65-5.67zM367.75 378.16l116.34-25.95c19.4-4.27 38.57-9.53 58.13-12.84 9.78-1.68 19.54-3.37 29.37-4.81 9.74-1.68 19.76-2.55 29.33-4.63l0.46 0.93c-9.06 4.89-18.64 7.78-28.17 10.81s-19.19 5.45-28.86 7.84c-19.32 4.81-39.08 7.45-58.66 10.83l-58.81 9.83-58.95 9z" fill="#FFFFFF" p-id="1697"></path><path d="M577.29 246.36l-103.5 66.13L370 378.19l-4.8-6.78 46.65-39 23.48-19.29 23.76-18.95c16-12.45 32-24.9 48.25-37l24.41-18.14c8.27-5.89 16.41-11.93 24.79-17.68l0.65 0.81c-7.38 7-15 13.69-22.48 20.54l-22.81 20.1c-15.24 13.38-30.76 26.41-46.28 39.44l-23.5 19.27-23.78 18.92-47.88 37.46-4.8-6.78 105.41-63 105.68-62.59z" fill="#FFFFFF" p-id="1698"></path><path d="M593.3 286.63l-55.56 24.05L482 334.25c-18.61 7.79-36.89 16.42-55.94 23.09s-38.21 13.07-58 17.79l-0.38-1c17.73-10 36.09-18.44 54.61-26.46S460 333.49 479 326.54l56.89-20.68 57.07-20.2zM332.13 419.05l-18.35 65.67q-9.26 32.8-18.18 65.67c-6 21.91-11 44.08-17.59 65.75l-9.88 32.51-4.82 16.26c-1.58 5.41-3.16 10.89-3.58 16.37l-1 0.18c-1.2-5.89-0.4-11.69 0-17.42 0.6-5.73 1.41-11.41 2.37-17.05 1.88-11.3 4.36-22.44 7-33.54 5.19-22.21 12.79-43.71 19.64-65.4s14-43.28 21.17-64.85l22.31-64.46zM222.59 571.47L275.4 488l53.12-83.24 6.54 3.55-24.61 59.35c-8.19 19.79-16.11 39.69-24.77 59.27-8.43 19.68-17.31 39.17-26.09 58.69l-13.35 29.21c-4.36 9.74-9.16 19.45-12.64 29.37l-1-0.13c1.92-10.83 5.68-20.85 8.94-31.11l10.8-30.34c7.6-20.06 15.3-40.08 23.64-59.83 8.1-19.85 17-39.34 25.79-58.89l26.47-58.59 6.54 3.55-55.49 81.68L223.46 572z" fill="#FFFFFF" p-id="1699"></path><path d="M231.87 523.32q23-31.68 46.95-62.7c7.95-10.36 15.74-20.87 24.41-30.67 8.85-9.59 17.39-19.69 28.26-27.36l0.31 0.41c-8.66 9.67-16.48 20.09-24.6 30.27s-16.77 19.95-25.2 29.95l-49.77 60.42zM251 461.94q17.7-16.6 36.09-32.43c6.11-5.3 12.1-10.8 18.78-15.43 3.34-2.31 6.73-4.57 10.31-6.57s7.18-4.07 11.33-4.95l0.16 0.49c-6.54 4.62-12.41 10.12-18.68 15.16s-12.86 9.67-19.3 14.52l-38.36 29.6zM524.91 213.92q-38.44 39-77.17 77.72c-12.88 12.94-25.54 26.08-38.85 38.58s-26.74 24.87-40.89 36.56l-0.37-0.37c12-13.79 24.84-26.79 37.58-39.87s26.32-25.31 39.59-37.85q39.71-37.73 79.72-75.14zM459.91 223.94q-22 35.32-44.41 70.39c-7.42 11.72-14.59 23.6-22.53 35S377 352 368.06 362.72l-0.43-0.29c6.42-12.38 13.76-24.16 21-36s15.51-23 23.39-34.41q23.54-34.31 47.44-68.39zM398.92 262.11Q389 288.6 378.83 315c-3.35 8.81-6.4 17.73-10.28 26.32s-8 17.06-12.53 25.39l-0.49-0.16c1.9-9.38 5-18.31 8.23-27.18s7.38-17.35 11.24-26q11.46-25.85 23.44-51.47zM356.7 301.59q-0.05 15.34-0.54 30.64c-0.17 5.1 0.11 10.24-0.66 15.29a75 75 0 0 1-3.5 15.08h-0.52a75 75 0 0 1-1.15-15.43c0-5.11 1.07-10.15 1.69-15.21q1.86-15.2 4.15-30.37zM337.93 320.31q2.62 12.44 4.82 24.93c0.73 4.16 1.9 8.27 2 12.51a52.27 52.27 0 0 1-0.81 12.85l-0.51 0.06a52.24 52.24 0 0 1-3.82-12.29c-0.88-4.14-0.72-8.42-1-12.63q-0.82-12.65-1.22-25.36zM326.53 338.39l5.7 17.88c0.94 3 2.36 5.79 2.82 8.84a53.67 53.67 0 0 1 0.84 9.42l-0.46 0.23a21 21 0 0 1-5.36-8.23c-1.23-3-1.36-6.19-1.87-9.29q-1.51-9.33-2.18-18.74zM309.69 357.69q6.3 4.38 12.3 9.07c2 1.57 4.3 2.81 5.89 4.82a20.54 20.54 0 0 1 3.94 6.89l-0.35 0.38a20.54 20.54 0 0 1-7.13-3.5c-2.1-1.46-3.49-3.68-5.18-5.57q-5.06-5.7-9.82-11.71zM303.61 368.39q6.6 2.55 13 5.47c2.12 1 4.47 1.57 6.3 3.07a17.83 17.83 0 0 1 4.86 5.53l-0.26 0.45a17.84 17.84 0 0 1-7.21-1.51c-2.2-0.85-3.87-2.6-5.77-4q-5.69-4.12-11.15-8.61zM292.77 384.44q7.78-0.62 15.54-0.8c2.58-0.06 5.2-0.56 7.74 0a21.2 21.2 0 0 1 7.56 2.83v0.52a21.2 21.2 0 0 1-7.86 1.82c-2.6 0.21-5.12-0.63-7.68-1q-7.67-1.19-15.3-2.81zM281.27 405.24q10.19-4.75 20.52-9.09c3.45-1.44 6.74-3.31 10.39-4.18a41.37 41.37 0 0 1 11.33-1.49l0.17 0.49a41.37 41.37 0 0 1-9.79 5.89c-3.4 1.59-7.14 2.18-10.73 3.2q-10.79 3-21.72 5.66zM270.51 426q12.72-7.87 25.65-15.35c4.31-2.49 8.41-5.38 13-7.33a71.44 71.44 0 0 1 14.31-4.8l0.24 0.46a71.45 71.45 0 0 1-12.17 8.94c-4.24 2.63-9 4.32-13.48 6.41q-13.56 6.26-27.32 12.14zM526.87 520.53c21.48 13.05 42.72 26.47 64.13 39.66l63.66 40.31c21.16 13.52 43.08 25.93 63.22 41s40.05 30.4 58.43 48l-0.87 1.29c-23.19-10.53-44.9-23.24-66.27-36.45s-41.07-28.89-61.48-43.52l-61-44.17c-20.2-14.95-40.52-29.7-60.61-44.81z" fill="#FFFFFF" p-id="1700"></path><path d="M767.55 670.85c11 5.88 22.22 10.37 34.24 15.2a15.22 15.22 0 0 1 7.24 8.8 15.87 15.87 0 0 1-1.08 12 16.61 16.61 0 0 1-22.43 6.91A289.56 289.56 0 0 1 753.68 694c-6.05-4.79-6.88-13.62-2.94-18.95a13.12 13.12 0 0 1 16.81-4.2z m0 0a11.68 11.68 0 0 0-9-0.74 11.46 11.46 0 0 0-6.6 5.71 10.66 10.66 0 0 0-0.49 8.22 10 10 0 0 0 5.05 5.64 307.24 307.24 0 0 1 33.8 14.94 8 8 0 0 0 10-2.28c2.53-3 2.42-8.66-1.35-12a282.87 282.87 0 0 0-31.41-19.49z" fill="#FFFFFF" p-id="1701"></path><path d="M341.074405 394.989294l-16.33387-8.600946 4.612641-8.759768 16.333871 8.600946-4.612642 8.759768Z" fill="#FFFFFF" p-id="1702"></path><path d="M196.07 776.14c9.75-10.6 22.51-18.2 35.64-24.28a199.86 199.86 0 0 1 41.46-13.5c28.54-6.07 57.89-7.39 86.91-5.94l21.75 1.6c7.25 0.59 14.37 1.93 21.58 2.86 14.45 1.71 28.54 5 42.78 7.74s27.7 5.9 41.58 8.77l20.85 3.51c6.94 1.21 13.89 2.39 20.89 3.11l20.93 2.79c7 0.86 14 1.28 21 1.95 14 1.56 28.07 1.5 42.12 2.32a668.43 668.43 0 0 0 84.18-3.76c55.75-6.79 111-21.64 161.25-49.32-22.62 17.65-48.41 31.28-75.24 42.09a423 423 0 0 1-83.7 23.23c-28.62 5-57.68 6.82-86.7 7.38-14.49-0.38-29-0.38-43.47-1.75-7.22-0.6-14.47-1-21.67-1.76l-21.57-2.64c-7.2-0.83-14.32-2.13-21.44-3.44l-21.36-3.85-42.13-9.57c-13.72-3.09-27.36-6.81-41.25-8.92-6.93-1.16-13.83-2.61-20.78-3.55l-20.89-2.72c-27.89-2.75-56.08-3.67-83.91-0.14-7 0.56-13.84 2.13-20.77 3.35-3.47 0.61-6.79 1.7-10.21 2.53a100.62 100.62 0 0 0-10.11 3 139.72 139.72 0 0 0-19.61 7.77 83 83 0 0 0-18.11 11.14z" fill="#FFFFFF" p-id="1703"></path></svg>